<svg xmlns="http://www.w3.org/2000/svg" version="1.1" xmlns:xlink="http://www.w3.org/1999/xlink" xmlns:svgjs="http://svgjs.dev/svgjs" width="2560" height="800" preserveAspectRatio="none" viewBox="0 0 2560 800"><g mask="url(&quot;#SvgjsMask1144&quot;)" fill="none"><path d="M2773.3333333333335 800L0 800 L0 277.31Q149.13 213.11, 213.33333333333331 362.24Q327.4 262.97, 426.66666666666663 377.04Q441.91 264.28, 554.6666666666666 279.53Q655.88 167.41, 768 268.62Q799.72 172.34, 896 204.06Q1044.98 139.7, 1109.3333333333333 288.68Q1236.33 202.34, 1322.6666666666665 329.33Q1363.73 157.06, 1535.9999999999998 198.12Q1605.02 139.14, 1663.9999999999998 208.16Q1799.63 215.8, 1791.9999999999998 351.43Q1907 253.09, 2005.333333333333 368.09Q2072.78 222.21, 2218.6666666666665 289.66Q2369.62 227.28, 2432 378.23Q2462.39 280.62, 2560 311Q2632.9 170.56, 2773.3333333333335 243.46z" fill="rgba(241, 250, 238, 1)"></path><path d="M2602.6666666666665 800L0 800 L0 349.25Q129.94 265.86, 213.33333333333331 395.8Q260.02 314.49, 341.3333333333333 361.18Q501.49 308, 554.6666666666666 468.16Q698.1 398.26, 768 541.7Q817.78 463.48, 896 513.26Q957.8 361.73, 1109.3333333333333 423.53Q1159.27 345.46, 1237.3333333333333 395.4Q1346.93 377, 1365.3333333333333 486.6Q1447.11 440.38, 1493.3333333333333 522.15Q1501.41 316.89, 1706.6666666666665 324.97Q1823.47 228.44, 1919.9999999999998 345.24Q2057.34 269.25, 2133.333333333333 406.59Q2252.98 398.24, 2261.333333333333 517.88Q2313.33 441.88, 2389.333333333333 493.88Q2414.56 305.77, 2602.6666666666665 331z" fill="rgba(168, 218, 220, 1)"></path><path d="M2688 800L0 800 L0 698.35Q9.73 580.08, 128 589.8Q166.92 500.72, 256 539.64Q311.41 467.05, 384 522.45Q562.44 487.55, 597.3333333333333 665.99Q643.61 498.94, 810.6666666666665 545.22Q894.35 415.57, 1023.9999999999998 499.26Q1102.92 450.18, 1151.9999999999998 529.1Q1295.92 459.68, 1365.333333333333 603.6Q1512.14 537.07, 1578.6666666666663 683.88Q1580.39 557.61, 1706.6666666666663 559.33Q1822.76 462.09, 1919.9999999999995 578.19Q1986.9 431.75, 2133.333333333333 498.65Q2285.68 437.67, 2346.6666666666665 590.02Q2435.69 551.04, 2474.6666666666665 640.06Q2503.5 455.56, 2688 484.4z" fill="rgba(69, 123, 157, 1)"></path><path d="M2688 800L0 800 L0 842.46Q15.43 729.89, 128 745.32Q147.04 636.36, 256 655.4Q378.5 564.56, 469.3333333333333 687.06Q583.26 587.65, 682.6666666666666 701.57Q848.62 654.19, 896 820.15Q913.45 709.6, 1024 727.05Q1142.99 632.71, 1237.3333333333333 751.7Q1295.24 596.27, 1450.6666666666665 654.18Q1569.4 559.58, 1663.9999999999998 678.31Q1822.88 623.85, 1877.333333333333 782.73Q1902.42 679.82, 2005.333333333333 704.91Q2080.76 567.01, 2218.6666666666665 642.44Q2305.65 601.42, 2346.6666666666665 688.4Q2522.18 650.58, 2560 826.1Q2599.04 737.14, 2688 776.18z" fill="rgba(29, 53, 87, 1)"></path></g><defs><mask id="SvgjsMask1144"><rect width="2560" height="800" fill="#ffffff"></rect></mask></defs></svg>