<svg xmlns="http://www.w3.org/2000/svg" version="1.1" xmlns:xlink="http://www.w3.org/1999/xlink" xmlns:svgjs="http://svgjs.dev/svgjs" width="2600" height="500" preserveAspectRatio="none" viewBox="0 0 2600 500"><g mask="url(&quot;#SvgjsMask1244&quot;)" fill="none"><path d="M2686.6666666666665 500L0 500 L0 133.62Q93.32 10.27, 216.66666666666669 103.59Q402.5 72.76, 433.33333333333337 258.59Q467.86 163.12, 563.3333333333334 197.65Q617.76 122.08, 693.3333333333334 176.51Q783.15 136.33, 823.3333333333334 226.15Q959.93 146.08, 1040 282.68Q1052.02 164.7, 1170 176.72Q1197.61 74.32, 1300 101.93Q1423.19 8.46, 1516.6666666666667 131.65Q1593.53 78.51, 1646.6666666666667 155.38Q1788.01 80.06, 1863.3333333333335 221.41Q1908.06 136.13, 1993.3333333333335 180.86Q2049.03 106.56, 2123.3333333333335 162.25Q2286.91 109.16, 2340 272.74Q2361.88 164.62, 2470 186.5Q2602.44 102.28, 2686.6666666666665 234.72z" fill="rgba(168, 218, 220, 1)"></path><path d="M2730 500L0 500 L0 323.04Q53.47 246.51, 130 299.99Q231.65 184.97, 346.6666666666667 286.62Q471.21 281.16, 476.6666666666667 405.71Q490.94 289.98, 606.6666666666667 304.25Q680.07 247.65, 736.6666666666667 321.05Q859.05 226.76, 953.3333333333335 349.14Q1038.61 217.75, 1170.0000000000002 303.03Q1270.9 273.93, 1300.0000000000002 374.83Q1319.93 264.75, 1430.0000000000002 284.68Q1506.1 230.78, 1560.0000000000002 306.88Q1718.48 248.7, 1776.666666666667 407.18Q1781.34 281.86, 1906.666666666667 286.53Q1993.99 157.19, 2123.3333333333335 244.51Q2215.96 207.14, 2253.3333333333335 299.77Q2336.87 253.3, 2383.3333333333335 336.84Q2455.72 279.23, 2513.3333333333335 351.62Q2572.47 194.09, 2730 253.22z" fill="rgba(69, 123, 157, 1)"></path><path d="M2686.6666666666665 500L0 500 L0 375.44Q124.93 370.37, 130 495.3Q155.81 391.11, 260 416.91Q335.8 362.71, 390 438.51Q508.67 427.18, 520 545.84Q551.6 447.44, 650 479.04Q772.39 384.76, 866.6666666666667 507.15Q944.4 454.88, 996.6666666666667 532.61Q1032.56 351.83, 1213.3333333333335 387.72Q1332.16 289.88, 1430.0000000000002 408.7Q1548.75 397.45, 1560.0000000000002 516.2Q1586.82 413.01, 1690.0000000000002 439.83Q1764.59 384.42, 1820.0000000000002 459.01Q1911.12 420.13, 1950.0000000000002 511.24Q2000.74 431.98, 2080 482.72Q2113.77 386.49, 2210 420.26Q2281.14 361.4, 2340 432.55Q2472.15 348.03, 2556.6666666666665 480.18Q2608.52 402.03, 2686.6666666666665 453.88z" fill="rgba(29, 53, 87, 1)"></path></g><defs><mask id="SvgjsMask1244"><rect width="2600" height="500" fill="#ffffff"></rect></mask></defs></svg>