<svg xmlns="http://www.w3.org/2000/svg" version="1.1" xmlns:xlink="http://www.w3.org/1999/xlink" xmlns:svgjs="http://svgjs.dev/svgjs" width="2600" height="500" preserveAspectRatio="none" viewBox="0 0 2600 500"><g mask="url(&quot;#SvgjsMask1120&quot;)" fill="none"><path d="M2686.666666666667 500L0 500 L0 124.92Q104.88 99.8, 130 204.68Q207.04 65.06, 346.6666666666667 142.1Q446.37 25.13, 563.3333333333334 124.83Q695.73 40.56, 780 172.96Q895.27 71.57, 996.6666666666667 186.84Q1120.66 94.17, 1213.3333333333335 218.17Q1265.36 53.53, 1430.0000000000002 105.56Q1568.84 27.74, 1646.666666666667 166.58Q1768.3 71.54, 1863.3333333333337 193.17Q1935.3 48.47, 2080.0000000000005 120.43Q2155.2 65.63, 2210.0000000000005 140.82Q2292.2 93.02, 2340.0000000000005 175.22Q2480.63 99.19, 2556.666666666667 239.82Q2594.98 148.13, 2686.666666666667 186.45z" fill="rgba(29, 53, 87, 1)"></path><path d="M2773.333333333333 500L0 500 L0 265.28Q97.28 145.9, 216.66666666666669 243.18Q348.67 158.52, 433.33333333333337 290.52Q521.05 248.24, 563.3333333333334 335.95Q615.26 257.88, 693.3333333333334 309.8Q748.1 234.56, 823.3333333333334 289.33Q864.34 200.33, 953.3333333333334 241.34Q1073.43 144.77, 1170 264.87Q1288.85 167.06, 1386.6666666666667 285.91Q1421.31 190.55, 1516.6666666666667 225.19Q1602 180.53, 1646.6666666666667 265.86Q1719.21 208.4, 1776.6666666666667 280.95Q1903.33 190.94, 1993.3333333333335 317.6Q2068.04 175.64, 2210 250.35Q2343.27 166.95, 2426.6666666666665 300.22Q2472.65 216.21, 2556.6666666666665 262.19Q2643.43 132.29, 2773.333333333333 219.05z" fill="rgba(69, 123, 157, 1)"></path><path d="M2686.6666666666665 500L0 500 L0 310.17Q140.11 233.61, 216.66666666666669 373.72Q349.51 289.9, 433.33333333333337 422.74Q512.08 284.82, 650 363.57Q773.62 270.53, 866.6666666666667 394.15Q886.95 284.43, 996.6666666666667 304.71Q1076.11 254.15, 1126.6666666666667 333.6Q1236.91 313.84, 1256.6666666666667 424.08Q1358.26 309.01, 1473.3333333333335 410.6Q1516.99 324.26, 1603.3333333333335 367.92Q1646.21 280.8, 1733.3333333333335 323.67Q1888.34 262.01, 1950.0000000000002 417.01Q1995.13 332.15, 2080 377.28Q2154.34 234.96, 2296.6666666666665 309.3Q2388.26 270.89, 2426.6666666666665 362.48Q2518.46 324.27, 2556.6666666666665 416.06Q2607.37 336.76, 2686.6666666666665 387.47z" fill="rgba(168, 218, 220, 1)"></path><path d="M2730 500L0 500 L0 499.75Q69.22 438.97, 130 508.19Q178.45 426.64, 260 475.1Q305.08 390.18, 390 435.26Q509.12 337.71, 606.6666666666667 456.83Q746.95 380.45, 823.3333333333335 520.73Q915.64 396.37, 1040.0000000000002 488.67Q1134.91 366.91, 1256.666666666667 461.82Q1404.09 392.57, 1473.3333333333337 539.99Q1518.81 455.47, 1603.3333333333337 500.95Q1680.36 361.31, 1820.0000000000005 438.33Q1925.94 414.27, 1950.0000000000005 520.21Q2002.87 443.08, 2080.0000000000005 495.95Q2162.32 361.6, 2296.666666666667 443.92Q2440.45 371.04, 2513.3333333333335 514.83Q2576.71 361.54, 2730 424.92z" fill="rgba(241, 250, 238, 1)"></path></g><defs><mask id="SvgjsMask1120"><rect width="2600" height="500" fill="#ffffff"></rect></mask></defs></svg>