<svg xmlns="http://www.w3.org/2000/svg" version="1.1" xmlns:xlink="http://www.w3.org/1999/xlink" xmlns:svgjs="http://svgjs.dev/svgjs" width="2600" height="500" preserveAspectRatio="none" viewBox="0 0 2600 500"><g mask="url(&quot;#SvgjsMask1240&quot;)" fill="none"><path d="M2816.6666666666665 500L0 500 L0 248.93Q32.79 151.72, 130 184.51Q180.65 105.16, 260 155.8Q306.5 72.3, 390 118.79Q461.96 60.75, 520 132.71Q643.56 126.28, 650 249.84Q684.16 67.34, 866.6666666666667 101.5Q986.22 4.39, 1083.3333333333335 123.94Q1253.08 77.02, 1300.0000000000002 246.76Q1308.79 125.55, 1430.0000000000002 134.33Q1525.72 13.38, 1646.666666666667 109.1Q1729.83 62.27, 1776.666666666667 145.43Q1903.66 142.43, 1906.666666666667 269.42Q1968 114.08, 2123.3333333333335 175.41Q2201.56 36.97, 2340 115.19Q2420.99 66.18, 2470 147.16Q2561.18 108.34, 2600 199.52Q2659.84 42.7, 2816.6666666666665 102.54z" fill="rgba(168, 218, 220, 1)"></path><path d="M2730 500L0 500 L0 410.73Q104.63 298.7, 216.66666666666669 403.33Q287.76 257.76, 433.33333333333337 328.85Q517.15 282.67, 563.3333333333334 366.49Q581.5 254.66, 693.3333333333334 272.83Q766.24 215.74, 823.3333333333334 288.64Q913.21 161.85, 1040 251.72Q1209.34 204.39, 1256.6666666666667 373.73Q1387.34 287.74, 1473.3333333333335 418.41Q1479.42 294.5, 1603.3333333333335 300.58Q1687.56 168.14, 1820.0000000000002 252.36Q1932.86 235.22, 1950.0000000000002 348.08Q2078.82 260.24, 2166.666666666667 389.06Q2226.97 232.7, 2383.3333333333335 293Q2514.26 207.26, 2600 338.18Q2656.09 264.26, 2730 320.35z" fill="rgba(69, 123, 157, 1)"></path><path d="M2816.6666666666665 500L0 500 L0 436.72Q42.87 349.59, 130 392.46Q296.16 341.96, 346.6666666666667 508.12Q359.32 390.77, 476.6666666666667 403.42Q594.85 304.93, 693.3333333333334 423.11Q847.42 360.53, 910 514.61Q979.65 367.59, 1126.6666666666667 437.24Q1181.74 362.31, 1256.6666666666667 417.38Q1378.32 409.03, 1386.6666666666667 530.68Q1450.53 377.88, 1603.3333333333335 441.74Q1697.03 405.44, 1733.3333333333335 499.13Q1743.75 379.54, 1863.3333333333335 389.96Q1939.63 336.25, 1993.3333333333335 412.55Q2105.72 394.94, 2123.3333333333335 507.33Q2149.99 403.99, 2253.3333333333335 430.65Q2390.66 351.31, 2470 488.64Q2549.69 438.33, 2600 518.02Q2664.1 365.45, 2816.6666666666665 429.55z" fill="rgba(29, 53, 87, 1)"></path></g><defs><mask id="SvgjsMask1240"><rect width="2600" height="500" fill="#ffffff"></rect></mask></defs></svg>