<svg xmlns="http://www.w3.org/2000/svg" version="1.1" xmlns:xlink="http://www.w3.org/1999/xlink" xmlns:svgjs="http://svgjs.dev/svgjs" width="1300" height="200" preserveAspectRatio="none" viewBox="0 0 1300 200"><g mask="url(&quot;#SvgjsMask1196&quot;)" fill="none"><path d="M-79.05 231.52L-79.05 231.52" stroke="rgba(168, 218, 220, 1)" stroke-width="1.5"></path><path d="M-79.05 231.52L-50.25 351.33" stroke="rgba(168, 218, 220, 1)" stroke-width="1.5"></path><path d="M-79.05 231.52L105.39 222.58" stroke="rgba(168, 218, 220, 1)" stroke-width="1.5"></path><path d="M-79.05 231.52L88 383.37" stroke="rgba(168, 218, 220, 1)" stroke-width="1.5"></path><path d="M-79.05 231.52L203.79 370.15" stroke="rgba(168, 218, 220, 1)" stroke-width="1.5"></path><path d="M-50.25 351.33L-50.25 351.33" stroke="rgba(168, 218, 220, 1)" stroke-width="1.5"></path><path d="M-50.25 351.33L88 383.37" stroke="rgba(168, 218, 220, 1)" stroke-width="1.5"></path><path d="M-50.25 351.33L105.39 222.58" stroke="rgba(168, 218, 220, 1)" stroke-width="1.5"></path><path d="M-50.25 351.33L203.79 370.15" stroke="rgba(168, 218, 220, 1)" stroke-width="1.5"></path><path d="M-50.25 351.33L245.52 235.83" stroke="rgba(168, 218, 220, 1)" stroke-width="1.5"></path><path d="M-50.25 351.33L367.12 373.51" stroke="rgba(168, 218, 220, 1)" stroke-width="1.5"></path><path d="M105.39 222.58L105.39 222.58" stroke="rgba(168, 218, 220, 1)" stroke-width="1.5"></path><path d="M105.39 222.58L245.52 235.83" stroke="rgba(168, 218, 220, 1)" stroke-width="1.5"></path><path d="M105.39 222.58L88 383.37" stroke="rgba(168, 218, 220, 1)" stroke-width="1.5"></path><path d="M105.39 222.58L203.79 370.15" stroke="rgba(168, 218, 220, 1)" stroke-width="1.5"></path><path d="M105.39 222.58L359.77 239.53" stroke="rgba(168, 218, 220, 1)" stroke-width="1.5"></path><path d="M88 383.37L88 383.37" stroke="rgba(168, 218, 220, 1)" stroke-width="1.5"></path><path d="M88 383.37L203.79 370.15" stroke="rgba(168, 218, 220, 1)" stroke-width="1.5"></path><path d="M88 383.37L245.52 235.83" stroke="rgba(168, 218, 220, 1)" stroke-width="1.5"></path><path d="M88 383.37L367.12 373.51" stroke="rgba(168, 218, 220, 1)" stroke-width="1.5"></path><path d="M245.52 235.83L245.52 235.83" stroke="rgba(168, 218, 220, 1)" stroke-width="1.5"></path><path d="M245.52 235.83L359.77 239.53" stroke="rgba(168, 218, 220, 1)" stroke-width="1.5"></path><path d="M245.52 235.83L203.79 370.15" stroke="rgba(168, 218, 220, 1)" stroke-width="1.5"></path><path d="M245.52 235.83L367.12 373.51" stroke="rgba(168, 218, 220, 1)" stroke-width="1.5"></path><path d="M203.79 370.15L203.79 370.15" stroke="rgba(168, 218, 220, 1)" stroke-width="1.5"></path><path d="M203.79 370.15L367.12 373.51" stroke="rgba(168, 218, 220, 1)" stroke-width="1.5"></path><path d="M203.79 370.15L359.77 239.53" stroke="rgba(168, 218, 220, 1)" stroke-width="1.5"></path><path d="M359.77 239.53L359.77 239.53" stroke="rgba(168, 218, 220, 1)" stroke-width="1.5"></path><path d="M359.77 239.53L367.12 373.51" stroke="rgba(168, 218, 220, 1)" stroke-width="1.5"></path><path d="M359.77 239.53L549.06 248.17" stroke="rgba(168, 218, 220, 1)" stroke-width="1.5"></path><path d="M359.77 239.53L535.72 92.76" stroke="rgba(168, 218, 220, 1)" stroke-width="1.5"></path><path d="M367.12 373.51L367.12 373.51" stroke="rgba(168, 218, 220, 1)" stroke-width="1.5"></path><path d="M367.12 373.51L557.65 394.39" stroke="rgba(168, 218, 220, 1)" stroke-width="1.5"></path><path d="M535.72 92.76L535.72 92.76" stroke="rgba(168, 218, 220, 1)" stroke-width="1.5"></path><path d="M535.72 92.76L655.06 90.72" stroke="rgba(168, 218, 220, 1)" stroke-width="1.5"></path><path d="M535.72 92.76L549.06 248.17" stroke="rgba(168, 218, 220, 1)" stroke-width="1.5"></path><path d="M549.06 248.17L549.06 248.17" stroke="rgba(168, 218, 220, 1)" stroke-width="1.5"></path><path d="M549.06 248.17L659.39 239.43" stroke="rgba(168, 218, 220, 1)" stroke-width="1.5"></path><path d="M549.06 248.17L557.65 394.39" stroke="rgba(168, 218, 220, 1)" stroke-width="1.5"></path><path d="M549.06 248.17L655.06 90.72" stroke="rgba(168, 218, 220, 1)" stroke-width="1.5"></path><path d="M557.65 394.39L557.65 394.39" stroke="rgba(168, 218, 220, 1)" stroke-width="1.5"></path><path d="M557.65 394.39L673.47 405.62" stroke="rgba(168, 218, 220, 1)" stroke-width="1.5"></path><path d="M557.65 394.39L659.39 239.43" stroke="rgba(168, 218, 220, 1)" stroke-width="1.5"></path><path d="M557.65 394.39L799.01 352.74" stroke="rgba(168, 218, 220, 1)" stroke-width="1.5"></path><path d="M655.06 90.72L655.06 90.72" stroke="rgba(168, 218, 220, 1)" stroke-width="1.5"></path><path d="M655.06 90.72L659.39 239.43" stroke="rgba(168, 218, 220, 1)" stroke-width="1.5"></path><path d="M655.06 90.72L833.46 70.24" stroke="rgba(168, 218, 220, 1)" stroke-width="1.5"></path><path d="M655.06 90.72L799.01 352.74" stroke="rgba(168, 218, 220, 1)" stroke-width="1.5"></path><path d="M659.39 239.43L659.39 239.43" stroke="rgba(168, 218, 220, 1)" stroke-width="1.5"></path><path d="M659.39 239.43L673.47 405.62" stroke="rgba(168, 218, 220, 1)" stroke-width="1.5"></path><path d="M673.47 405.62L673.47 405.62" stroke="rgba(168, 218, 220, 1)" stroke-width="1.5"></path><path d="M833.46 70.24L833.46 70.24" stroke="rgba(168, 218, 220, 1)" stroke-width="1.5"></path><path d="M833.46 70.24L966.06 88.15" stroke="rgba(168, 218, 220, 1)" stroke-width="1.5"></path><path d="M833.46 70.24L940.57 -88.3" stroke="rgba(168, 218, 220, 1)" stroke-width="1.5"></path><path d="M833.46 70.24L957.27 232.08" stroke="rgba(168, 218, 220, 1)" stroke-width="1.5"></path><path d="M833.46 70.24L659.39 239.43" stroke="rgba(168, 218, 220, 1)" stroke-width="1.5"></path><path d="M833.46 70.24L799.01 352.74" stroke="rgba(168, 218, 220, 1)" stroke-width="1.5"></path><path d="M799.01 352.74L799.01 352.74" stroke="rgba(168, 218, 220, 1)" stroke-width="1.5"></path><path d="M799.01 352.74L673.47 405.62" stroke="rgba(168, 218, 220, 1)" stroke-width="1.5"></path><path d="M799.01 352.74L941.75 345.54" stroke="rgba(168, 218, 220, 1)" stroke-width="1.5"></path><path d="M799.01 352.74L659.39 239.43" stroke="rgba(168, 218, 220, 1)" stroke-width="1.5"></path><path d="M940.57 -88.3L940.57 -88.3" stroke="rgba(168, 218, 220, 1)" stroke-width="1.5"></path><path d="M940.57 -88.3L966.06 88.15" stroke="rgba(168, 218, 220, 1)" stroke-width="1.5"></path><path d="M940.57 -88.3L1148.45 69.32" stroke="rgba(168, 218, 220, 1)" stroke-width="1.5"></path><path d="M940.57 -88.3L1240.68 -72.09" stroke="rgba(168, 218, 220, 1)" stroke-width="1.5"></path><path d="M940.57 -88.3L957.27 232.08" stroke="rgba(168, 218, 220, 1)" stroke-width="1.5"></path><path d="M940.57 -88.3L1094.77 193.97" stroke="rgba(168, 218, 220, 1)" stroke-width="1.5"></path><path d="M966.06 88.15L966.06 88.15" stroke="rgba(168, 218, 220, 1)" stroke-width="1.5"></path><path d="M966.06 88.15L957.27 232.08" stroke="rgba(168, 218, 220, 1)" stroke-width="1.5"></path><path d="M957.27 232.08L957.27 232.08" stroke="rgba(168, 218, 220, 1)" stroke-width="1.5"></path><path d="M957.27 232.08L941.75 345.54" stroke="rgba(168, 218, 220, 1)" stroke-width="1.5"></path><path d="M957.27 232.08L1094.77 193.97" stroke="rgba(168, 218, 220, 1)" stroke-width="1.5"></path><path d="M957.27 232.08L799.01 352.74" stroke="rgba(168, 218, 220, 1)" stroke-width="1.5"></path><path d="M941.75 345.54L941.75 345.54" stroke="rgba(168, 218, 220, 1)" stroke-width="1.5"></path><path d="M941.75 345.54L1094.77 193.97" stroke="rgba(168, 218, 220, 1)" stroke-width="1.5"></path><path d="M941.75 345.54L1159.6 389.91" stroke="rgba(168, 218, 220, 1)" stroke-width="1.5"></path><path d="M1148.45 69.32L1148.45 69.32" stroke="rgba(168, 218, 220, 1)" stroke-width="1.5"></path><path d="M1148.45 69.32L1246.75 111.49" stroke="rgba(168, 218, 220, 1)" stroke-width="1.5"></path><path d="M1148.45 69.32L1094.77 193.97" stroke="rgba(168, 218, 220, 1)" stroke-width="1.5"></path><path d="M1148.45 69.32L1247.3 205.21" stroke="rgba(168, 218, 220, 1)" stroke-width="1.5"></path><path d="M1148.45 69.32L1240.68 -72.09" stroke="rgba(168, 218, 220, 1)" stroke-width="1.5"></path><path d="M1094.77 193.97L1094.77 193.97" stroke="rgba(168, 218, 220, 1)" stroke-width="1.5"></path><path d="M1159.6 389.91L1159.6 389.91" stroke="rgba(168, 218, 220, 1)" stroke-width="1.5"></path><path d="M1159.6 389.91L1243.24 376.1" stroke="rgba(168, 218, 220, 1)" stroke-width="1.5"></path><path d="M1159.6 389.91L1247.3 205.21" stroke="rgba(168, 218, 220, 1)" stroke-width="1.5"></path><path d="M1159.6 389.91L1094.77 193.97" stroke="rgba(168, 218, 220, 1)" stroke-width="1.5"></path><path d="M1240.68 -72.09L1240.68 -72.09" stroke="rgba(168, 218, 220, 1)" stroke-width="1.5"></path><path d="M1240.68 -72.09L1401.9 -59.02" stroke="rgba(168, 218, 220, 1)" stroke-width="1.5"></path><path d="M1246.75 111.49L1246.75 111.49" stroke="rgba(168, 218, 220, 1)" stroke-width="1.5"></path><path d="M1246.75 111.49L1247.3 205.21" stroke="rgba(168, 218, 220, 1)" stroke-width="1.5"></path><path d="M1247.3 205.21L1247.3 205.21" stroke="rgba(168, 218, 220, 1)" stroke-width="1.5"></path><path d="M1247.3 205.21L1393.5 207.76" stroke="rgba(168, 218, 220, 1)" stroke-width="1.5"></path><path d="M1247.3 205.21L1094.77 193.97" stroke="rgba(168, 218, 220, 1)" stroke-width="1.5"></path><path d="M1247.3 205.21L1243.24 376.1" stroke="rgba(168, 218, 220, 1)" stroke-width="1.5"></path><path d="M1243.24 376.1L1243.24 376.1" stroke="rgba(168, 218, 220, 1)" stroke-width="1.5"></path><path d="M1401.9 -59.02L1401.9 -59.02" stroke="rgba(168, 218, 220, 1)" stroke-width="1.5"></path><path d="M1401.9 -59.02L1246.75 111.49" stroke="rgba(168, 218, 220, 1)" stroke-width="1.5"></path><path d="M1393.5 207.76L1393.5 207.76" stroke="rgba(168, 218, 220, 1)" stroke-width="1.5"></path><path d="M1393.5 207.76L1246.75 111.49" stroke="rgba(168, 218, 220, 1)" stroke-width="1.5"></path><path d="M1393.5 207.76L1419.8 390.78" stroke="rgba(168, 218, 220, 1)" stroke-width="1.5"></path><path d="M1393.5 207.76L1243.24 376.1" stroke="rgba(168, 218, 220, 1)" stroke-width="1.5"></path><path d="M1393.5 207.76L1401.9 -59.02" stroke="rgba(168, 218, 220, 1)" stroke-width="1.5"></path><path d="M1393.5 207.76L1148.45 69.32" stroke="rgba(168, 218, 220, 1)" stroke-width="1.5"></path><path d="M1419.8 390.78L1419.8 390.78" stroke="rgba(168, 218, 220, 1)" stroke-width="1.5"></path><path d="M1419.8 390.78L1243.24 376.1" stroke="rgba(168, 218, 220, 1)" stroke-width="1.5"></path><path d="M1419.8 390.78L1247.3 205.21" stroke="rgba(168, 218, 220, 1)" stroke-width="1.5"></path><circle r="5" cx="-79.05" cy="231.52" fill="rgba(168, 218, 220, 1)"></circle><circle r="5" cx="-50.25" cy="351.33" fill="rgba(168, 218, 220, 1)"></circle><circle r="5" cx="105.39" cy="222.58" fill="rgba(168, 218, 220, 1)"></circle><circle r="5" cx="88" cy="383.37" fill="rgba(168, 218, 220, 1)"></circle><circle r="5" cx="245.52" cy="235.83" fill="rgba(168, 218, 220, 1)"></circle><circle r="5" cx="203.79" cy="370.15" fill="rgba(168, 218, 220, 1)"></circle><circle r="5" cx="359.77" cy="239.53" fill="rgba(168, 218, 220, 1)"></circle><circle r="5" cx="367.12" cy="373.51" fill="rgba(168, 218, 220, 1)"></circle><circle r="5" cx="535.72" cy="92.76" fill="rgba(168, 218, 220, 1)"></circle><circle r="5" cx="549.06" cy="248.17" fill="rgba(168, 218, 220, 1)"></circle><circle r="5" cx="557.65" cy="394.39" fill="rgba(168, 218, 220, 1)"></circle><circle r="5" cx="655.06" cy="90.72" fill="rgba(168, 218, 220, 1)"></circle><circle r="5" cx="659.39" cy="239.43" fill="rgba(168, 218, 220, 1)"></circle><circle r="5" cx="673.47" cy="405.62" fill="rgba(168, 218, 220, 1)"></circle><circle r="5" cx="833.46" cy="70.24" fill="rgba(168, 218, 220, 1)"></circle><circle r="5" cx="799.01" cy="352.74" fill="rgba(168, 218, 220, 1)"></circle><circle r="5" cx="940.57" cy="-88.3" fill="rgba(168, 218, 220, 1)"></circle><circle r="5" cx="966.06" cy="88.15" fill="rgba(168, 218, 220, 1)"></circle><circle r="5" cx="957.27" cy="232.08" fill="rgba(168, 218, 220, 1)"></circle><circle r="5" cx="941.75" cy="345.54" fill="rgba(168, 218, 220, 1)"></circle><circle r="5" cx="1148.45" cy="69.32" fill="rgba(168, 218, 220, 1)"></circle><circle r="5" cx="1094.77" cy="193.97" fill="rgba(168, 218, 220, 1)"></circle><circle r="5" cx="1159.6" cy="389.91" fill="rgba(168, 218, 220, 1)"></circle><circle r="5" cx="1240.68" cy="-72.09" fill="rgba(168, 218, 220, 1)"></circle><circle r="5" cx="1246.75" cy="111.49" fill="rgba(168, 218, 220, 1)"></circle><circle r="5" cx="1247.3" cy="205.21" fill="rgba(168, 218, 220, 1)"></circle><circle r="5" cx="1243.24" cy="376.1" fill="rgba(168, 218, 220, 1)"></circle><circle r="5" cx="1401.9" cy="-59.02" fill="rgba(168, 218, 220, 1)"></circle><circle r="5" cx="1393.5" cy="207.76" fill="rgba(168, 218, 220, 1)"></circle><circle r="5" cx="1419.8" cy="390.78" fill="rgba(168, 218, 220, 1)"></circle><path d="M-40.34 228.34L-40.34 228.34" stroke="hsl(203.20000000000005, 38.9%, 57.6%)" stroke-width="1.5"></path><path d="M-40.34 228.34L92.15 205.86" stroke="hsl(203.20000000000005, 38.9%, 57.6%)" stroke-width="1.5"></path><path d="M-40.34 228.34L104.45 408.81" stroke="hsl(203.20000000000005, 38.9%, 57.6%)" stroke-width="1.5"></path><path d="M-40.34 228.34L192.62 208.9" stroke="hsl(203.20000000000005, 38.9%, 57.6%)" stroke-width="1.5"></path><path d="M-40.34 228.34L192.99 353.99" stroke="hsl(203.20000000000005, 38.9%, 57.6%)" stroke-width="1.5"></path><path d="M-40.34 228.34L341.98 206.36" stroke="hsl(203.20000000000005, 38.9%, 57.6%)" stroke-width="1.5"></path><path d="M192.99 353.99L192.99 353.99" stroke="hsl(203.20000000000005, 38.9%, 57.6%)" stroke-width="1.5"></path><path d="M192.99 353.99L104.45 408.81" stroke="hsl(203.20000000000005, 38.9%, 57.6%)" stroke-width="1.5"></path><path d="M192.99 353.99L192.62 208.9" stroke="hsl(203.20000000000005, 38.9%, 57.6%)" stroke-width="1.5"></path><path d="M192.99 353.99L344.97 379.63" stroke="hsl(203.20000000000005, 38.9%, 57.6%)" stroke-width="1.5"></path><path d="M192.99 353.99L92.15 205.86" stroke="hsl(203.20000000000005, 38.9%, 57.6%)" stroke-width="1.5"></path><path d="M192.99 353.99L341.98 206.36" stroke="hsl(203.20000000000005, 38.9%, 57.6%)" stroke-width="1.5"></path><path d="M1134.98 63.09L1134.98 63.09" stroke="hsl(203.20000000000005, 38.9%, 57.6%)" stroke-width="1.5"></path><path d="M1134.98 63.09L1104.01 -95.85" stroke="hsl(203.20000000000005, 38.9%, 57.6%)" stroke-width="1.5"></path><path d="M1134.98 63.09L949.89 66.29" stroke="hsl(203.20000000000005, 38.9%, 57.6%)" stroke-width="1.5"></path><path d="M1444.41 92.23L1444.41 92.23" stroke="hsl(203.20000000000005, 38.9%, 57.6%)" stroke-width="1.5"></path><path d="M1444.41 92.23L1408.04 192.95" stroke="hsl(203.20000000000005, 38.9%, 57.6%)" stroke-width="1.5"></path><path d="M1444.41 92.23L1413.22 -83.21" stroke="hsl(203.20000000000005, 38.9%, 57.6%)" stroke-width="1.5"></path><path d="M1444.41 92.23L1271.38 230.23" stroke="hsl(203.20000000000005, 38.9%, 57.6%)" stroke-width="1.5"></path><path d="M1444.41 92.23L1271.26 -91.08" stroke="hsl(203.20000000000005, 38.9%, 57.6%)" stroke-width="1.5"></path><path d="M92.15 205.86L92.15 205.86" stroke="hsl(203.20000000000005, 38.9%, 57.6%)" stroke-width="1.5"></path><path d="M92.15 205.86L192.62 208.9" stroke="hsl(203.20000000000005, 38.9%, 57.6%)" stroke-width="1.5"></path><path d="M104.45 408.81L104.45 408.81" stroke="hsl(203.20000000000005, 38.9%, 57.6%)" stroke-width="1.5"></path><path d="M104.45 408.81L92.15 205.86" stroke="hsl(203.20000000000005, 38.9%, 57.6%)" stroke-width="1.5"></path><path d="M192.62 208.9L192.62 208.9" stroke="hsl(203.20000000000005, 38.9%, 57.6%)" stroke-width="1.5"></path><path d="M192.62 208.9L341.98 206.36" stroke="hsl(203.20000000000005, 38.9%, 57.6%)" stroke-width="1.5"></path><path d="M341.98 206.36L341.98 206.36" stroke="hsl(203.20000000000005, 38.9%, 57.6%)" stroke-width="1.5"></path><path d="M341.98 206.36L495.73 190.67" stroke="hsl(203.20000000000005, 38.9%, 57.6%)" stroke-width="1.5"></path><path d="M341.98 206.36L344.97 379.63" stroke="hsl(203.20000000000005, 38.9%, 57.6%)" stroke-width="1.5"></path><path d="M344.97 379.63L344.97 379.63" stroke="hsl(203.20000000000005, 38.9%, 57.6%)" stroke-width="1.5"></path><path d="M344.97 379.63L539.98 341.2" stroke="hsl(203.20000000000005, 38.9%, 57.6%)" stroke-width="1.5"></path><path d="M344.97 379.63L192.62 208.9" stroke="hsl(203.20000000000005, 38.9%, 57.6%)" stroke-width="1.5"></path><path d="M495.73 190.67L495.73 190.67" stroke="hsl(203.20000000000005, 38.9%, 57.6%)" stroke-width="1.5"></path><path d="M495.73 190.67L539.98 341.2" stroke="hsl(203.20000000000005, 38.9%, 57.6%)" stroke-width="1.5"></path><path d="M495.73 190.67L682.28 239.11" stroke="hsl(203.20000000000005, 38.9%, 57.6%)" stroke-width="1.5"></path><path d="M495.73 190.67L344.97 379.63" stroke="hsl(203.20000000000005, 38.9%, 57.6%)" stroke-width="1.5"></path><path d="M495.73 190.67L704.19 403.17" stroke="hsl(203.20000000000005, 38.9%, 57.6%)" stroke-width="1.5"></path><path d="M539.98 341.2L539.98 341.2" stroke="hsl(203.20000000000005, 38.9%, 57.6%)" stroke-width="1.5"></path><path d="M539.98 341.2L682.28 239.11" stroke="hsl(203.20000000000005, 38.9%, 57.6%)" stroke-width="1.5"></path><path d="M539.98 341.2L704.19 403.17" stroke="hsl(203.20000000000005, 38.9%, 57.6%)" stroke-width="1.5"></path><path d="M682.28 239.11L682.28 239.11" stroke="hsl(203.20000000000005, 38.9%, 57.6%)" stroke-width="1.5"></path><path d="M682.28 239.11L790.88 255.89" stroke="hsl(203.20000000000005, 38.9%, 57.6%)" stroke-width="1.5"></path><path d="M682.28 239.11L704.19 403.17" stroke="hsl(203.20000000000005, 38.9%, 57.6%)" stroke-width="1.5"></path><path d="M704.19 403.17L704.19 403.17" stroke="hsl(203.20000000000005, 38.9%, 57.6%)" stroke-width="1.5"></path><path d="M704.19 403.17L823.09 403.43" stroke="hsl(203.20000000000005, 38.9%, 57.6%)" stroke-width="1.5"></path><path d="M790.88 255.89L790.88 255.89" stroke="hsl(203.20000000000005, 38.9%, 57.6%)" stroke-width="1.5"></path><path d="M790.88 255.89L823.09 403.43" stroke="hsl(203.20000000000005, 38.9%, 57.6%)" stroke-width="1.5"></path><path d="M790.88 255.89L704.19 403.17" stroke="hsl(203.20000000000005, 38.9%, 57.6%)" stroke-width="1.5"></path><path d="M790.88 255.89L986.37 241.29" stroke="hsl(203.20000000000005, 38.9%, 57.6%)" stroke-width="1.5"></path><path d="M823.09 403.43L823.09 403.43" stroke="hsl(203.20000000000005, 38.9%, 57.6%)" stroke-width="1.5"></path><path d="M823.09 403.43L682.28 239.11" stroke="hsl(203.20000000000005, 38.9%, 57.6%)" stroke-width="1.5"></path><path d="M823.09 403.43L986.37 241.29" stroke="hsl(203.20000000000005, 38.9%, 57.6%)" stroke-width="1.5"></path><path d="M823.09 403.43L1110.98 399.41" stroke="hsl(203.20000000000005, 38.9%, 57.6%)" stroke-width="1.5"></path><path d="M949.89 66.29L949.89 66.29" stroke="hsl(203.20000000000005, 38.9%, 57.6%)" stroke-width="1.5"></path><path d="M949.89 66.29L986.37 241.29" stroke="hsl(203.20000000000005, 38.9%, 57.6%)" stroke-width="1.5"></path><path d="M949.89 66.29L1104.01 -95.85" stroke="hsl(203.20000000000005, 38.9%, 57.6%)" stroke-width="1.5"></path><path d="M986.37 241.29L986.37 241.29" stroke="hsl(203.20000000000005, 38.9%, 57.6%)" stroke-width="1.5"></path><path d="M986.37 241.29L1119.13 256.37" stroke="hsl(203.20000000000005, 38.9%, 57.6%)" stroke-width="1.5"></path><path d="M1104.01 -95.85L1104.01 -95.85" stroke="hsl(203.20000000000005, 38.9%, 57.6%)" stroke-width="1.5"></path><path d="M1104.01 -95.85L1271.26 -91.08" stroke="hsl(203.20000000000005, 38.9%, 57.6%)" stroke-width="1.5"></path><path d="M1104.01 -95.85L1413.22 -83.21" stroke="hsl(203.20000000000005, 38.9%, 57.6%)" stroke-width="1.5"></path><path d="M1104.01 -95.85L1119.13 256.37" stroke="hsl(203.20000000000005, 38.9%, 57.6%)" stroke-width="1.5"></path><path d="M1104.01 -95.85L986.37 241.29" stroke="hsl(203.20000000000005, 38.9%, 57.6%)" stroke-width="1.5"></path><path d="M1119.13 256.37L1119.13 256.37" stroke="hsl(203.20000000000005, 38.9%, 57.6%)" stroke-width="1.5"></path><path d="M1119.13 256.37L1110.98 399.41" stroke="hsl(203.20000000000005, 38.9%, 57.6%)" stroke-width="1.5"></path><path d="M1119.13 256.37L1271.38 230.23" stroke="hsl(203.20000000000005, 38.9%, 57.6%)" stroke-width="1.5"></path><path d="M1119.13 256.37L1134.98 63.09" stroke="hsl(203.20000000000005, 38.9%, 57.6%)" stroke-width="1.5"></path><path d="M1110.98 399.41L1110.98 399.41" stroke="hsl(203.20000000000005, 38.9%, 57.6%)" stroke-width="1.5"></path><path d="M1110.98 399.41L986.37 241.29" stroke="hsl(203.20000000000005, 38.9%, 57.6%)" stroke-width="1.5"></path><path d="M1110.98 399.41L1271.38 230.23" stroke="hsl(203.20000000000005, 38.9%, 57.6%)" stroke-width="1.5"></path><path d="M1271.26 -91.08L1271.26 -91.08" stroke="hsl(203.20000000000005, 38.9%, 57.6%)" stroke-width="1.5"></path><path d="M1271.26 -91.08L1413.22 -83.21" stroke="hsl(203.20000000000005, 38.9%, 57.6%)" stroke-width="1.5"></path><path d="M1271.26 -91.08L1134.98 63.09" stroke="hsl(203.20000000000005, 38.9%, 57.6%)" stroke-width="1.5"></path><path d="M1271.38 230.23L1271.38 230.23" stroke="hsl(203.20000000000005, 38.9%, 57.6%)" stroke-width="1.5"></path><path d="M1271.38 230.23L1408.04 192.95" stroke="hsl(203.20000000000005, 38.9%, 57.6%)" stroke-width="1.5"></path><path d="M1271.38 230.23L1134.98 63.09" stroke="hsl(203.20000000000005, 38.9%, 57.6%)" stroke-width="1.5"></path><path d="M1413.22 -83.21L1413.22 -83.21" stroke="hsl(203.20000000000005, 38.9%, 57.6%)" stroke-width="1.5"></path><path d="M1413.22 -83.21L1408.04 192.95" stroke="hsl(203.20000000000005, 38.9%, 57.6%)" stroke-width="1.5"></path><path d="M1413.22 -83.21L1134.98 63.09" stroke="hsl(203.20000000000005, 38.9%, 57.6%)" stroke-width="1.5"></path><path d="M1413.22 -83.21L1271.38 230.23" stroke="hsl(203.20000000000005, 38.9%, 57.6%)" stroke-width="1.5"></path><path d="M1408.04 192.95L1408.04 192.95" stroke="hsl(203.20000000000005, 38.9%, 57.6%)" stroke-width="1.5"></path><path d="M1428.25 410.55L1428.25 410.55" stroke="hsl(203.20000000000005, 38.9%, 57.6%)" stroke-width="1.5"></path><path d="M1428.25 410.55L1408.04 192.95" stroke="hsl(203.20000000000005, 38.9%, 57.6%)" stroke-width="1.5"></path><path d="M1428.25 410.55L1271.38 230.23" stroke="hsl(203.20000000000005, 38.9%, 57.6%)" stroke-width="1.5"></path><path d="M1428.25 410.55L1110.98 399.41" stroke="hsl(203.20000000000005, 38.9%, 57.6%)" stroke-width="1.5"></path><circle r="25" cx="-40.34" cy="228.34" fill="url(&quot;#SvgjsRadialGradient1197&quot;)"></circle><circle r="25" cx="192.99" cy="353.99" fill="url(&quot;#SvgjsRadialGradient1197&quot;)"></circle><circle r="25" cx="1134.98" cy="63.09" fill="url(&quot;#SvgjsRadialGradient1197&quot;)"></circle><circle r="25" cx="1444.41" cy="92.23" fill="url(&quot;#SvgjsRadialGradient1197&quot;)"></circle><circle r="5" cx="92.15" cy="205.86" fill="#a2bdce"></circle><circle r="5" cx="104.45" cy="408.81" fill="#a2bdce"></circle><circle r="5" cx="192.62" cy="208.9" fill="#a2bdce"></circle><circle r="5" cx="341.98" cy="206.36" fill="#a2bdce"></circle><circle r="5" cx="344.97" cy="379.63" fill="#a2bdce"></circle><circle r="5" cx="495.73" cy="190.67" fill="#a2bdce"></circle><circle r="5" cx="539.98" cy="341.2" fill="#a2bdce"></circle><circle r="5" cx="682.28" cy="239.11" fill="#a2bdce"></circle><circle r="5" cx="704.19" cy="403.17" fill="#a2bdce"></circle><circle r="5" cx="790.88" cy="255.89" fill="#a2bdce"></circle><circle r="5" cx="823.09" cy="403.43" fill="#a2bdce"></circle><circle r="5" cx="949.89" cy="66.29" fill="#a2bdce"></circle><circle r="5" cx="986.37" cy="241.29" fill="#a2bdce"></circle><circle r="5" cx="1104.01" cy="-95.85" fill="#a2bdce"></circle><circle r="5" cx="1119.13" cy="256.37" fill="#a2bdce"></circle><circle r="5" cx="1110.98" cy="399.41" fill="#a2bdce"></circle><circle r="5" cx="1271.26" cy="-91.08" fill="#a2bdce"></circle><circle r="5" cx="1271.38" cy="230.23" fill="#a2bdce"></circle><circle r="5" cx="1413.22" cy="-83.21" fill="#a2bdce"></circle><circle r="5" cx="1408.04" cy="192.95" fill="#a2bdce"></circle><circle r="5" cx="1428.25" cy="410.55" fill="#a2bdce"></circle></g><defs><mask id="SvgjsMask1196"><rect width="1300" height="200" fill="#ffffff"></rect></mask><radialGradient id="SvgjsRadialGradient1197"><stop stop-color="#ffffff" offset="0.1"></stop><stop stop-color="rgba(69, 123, 157, 1)" offset="0.2"></stop><stop stop-color="rgba(69, 123, 157, 0)" offset="1"></stop></radialGradient></defs></svg>